<svg width="36" height="37" viewBox="0 0 36 37" fill="none" xmlns="http://www.w3.org/2000/svg">
<g clip-path="url(#clip0_501_92)">
<path fill-rule="evenodd" clip-rule="evenodd" d="M18.0005 1.45959C13.7273 1.46181 9.59426 2.97528 6.34036 5.72938C3.08647 8.48348 0.923916 12.2986 0.239378 16.4926C-0.44516 20.6866 0.392951 24.9859 2.60387 28.6219C4.81478 32.2578 8.25432 34.9932 12.3075 36.3391C13.2016 36.505 13.5385 35.9508 13.5385 35.4796C13.5385 35.0084 13.5206 33.6421 13.5146 32.1484C8.50715 33.2302 7.44904 30.0353 7.44904 30.0353C6.63235 27.9608 5.45202 27.4154 5.45202 27.4154C3.81863 26.307 5.57423 26.3278 5.57423 26.3278C7.38347 26.4552 8.33429 28.1741 8.33429 28.1741C9.93787 30.9096 12.5459 30.1183 13.5712 29.656C13.7322 28.4972 14.2002 27.7088 14.7158 27.2613C10.7158 26.8108 6.51312 25.2757 6.51312 18.4177C6.48833 16.6392 7.15209 14.9192 8.36708 13.6136C8.18228 13.1631 7.56528 11.3434 8.54292 8.87174C8.54292 8.87174 10.0541 8.39163 13.4938 10.7063C16.4441 9.90403 19.5569 9.90403 22.5072 10.7063C25.9438 8.39163 27.452 8.87174 27.452 8.87174C28.4326 11.3375 27.8157 13.1572 27.6309 13.6136C28.8497 14.9194 29.5148 16.6424 29.4878 18.4237C29.4878 25.2964 25.2762 26.8108 21.2702 27.2524C21.914 27.8096 22.4893 28.8973 22.4893 30.5688C22.4893 32.9634 22.4684 34.8898 22.4684 35.4796C22.4684 35.9567 22.7933 36.5139 23.7054 36.3391C27.759 34.9931 31.1989 32.2572 33.4097 28.6206C35.6206 24.984 36.4583 20.684 35.773 16.4897C35.0877 12.2953 32.924 8.48013 29.6691 5.7265C26.4141 2.97288 22.2801 1.46041 18.0064 1.45959H18.0005Z" fill="black"/>
<path d="M12.0417 30.6725C12.0417 30.8177 11.8748 30.9422 11.6602 30.9451C11.4456 30.9481 11.2698 30.8296 11.2698 30.6843C11.2698 30.5391 11.4367 30.4146 11.6513 30.4117C11.8659 30.4087 12.0417 30.5243 12.0417 30.6725Z" fill="black"/>
<path d="M13.4128 30.4443C13.4397 30.5895 13.2906 30.7406 13.076 30.7762C12.8614 30.8118 12.6736 30.7258 12.6468 30.5836C12.62 30.4413 12.775 30.2872 12.9836 30.2487C13.1923 30.2102 13.386 30.2991 13.4128 30.4443Z" fill="black"/>
<path d="M10.5693 30.5717C10.5246 30.711 10.3219 30.7733 10.1192 30.714C9.9165 30.6547 9.78237 30.4888 9.82112 30.3465C9.85987 30.2042 10.0655 30.139 10.2712 30.2042C10.4769 30.2695 10.608 30.4265 10.5693 30.5717Z" fill="black"/>
<path d="M9.21905 29.9908C9.12069 30.1005 8.92099 30.0709 8.75706 29.9227C8.59312 29.7745 8.55437 29.573 8.65273 29.4663C8.75109 29.3596 8.95079 29.3892 9.12069 29.5344C9.29058 29.6797 9.32337 29.8841 9.21905 29.9908Z" fill="black"/>
<path d="M8.25631 28.9951C8.14602 29.0721 7.95823 28.9951 7.85391 28.841C7.82506 28.8133 7.80213 28.7802 7.78645 28.7435C7.77078 28.7068 7.7627 28.6674 7.7627 28.6276C7.7627 28.5877 7.77078 28.5483 7.78645 28.5117C7.80213 28.475 7.82506 28.4418 7.85391 28.4142C7.96419 28.3401 8.15198 28.4142 8.25631 28.5653C8.36063 28.7165 8.36361 28.918 8.25631 28.9951Z" fill="black"/>
<path d="M7.54697 27.9667C7.48524 27.9976 7.41462 28.0062 7.3472 27.9911C7.27977 27.976 7.21974 27.938 7.17737 27.8837C7.06113 27.7592 7.03727 27.5873 7.12669 27.5103C7.21611 27.4332 7.37707 27.4688 7.49332 27.5933C7.60956 27.7177 7.63638 27.8896 7.54697 27.9667Z" fill="black"/>
<path d="M6.81659 27.1576C6.77784 27.2465 6.63478 27.2732 6.51853 27.2109C6.40229 27.1487 6.31586 27.0331 6.35758 26.9413C6.39931 26.8494 6.5394 26.8257 6.65565 26.8879C6.77189 26.9501 6.8613 27.0687 6.81659 27.1576Z" fill="black"/>
</g>
<defs>
<clipPath id="clip0_501_92">
<rect width="36" height="36" fill="white" transform="translate(0 0.709595)"/>
</clipPath>
</defs>
</svg>
