<svg width="36" height="37" viewBox="0 0 36 37" fill="none" xmlns="http://www.w3.org/2000/svg">
<g clip-path="url(#clip0_501_84)">
<path d="M18 3.951C22.8094 3.951 23.3789 3.97209 25.2703 4.05647C27.0281 4.13381 27.9773 4.42913 28.6102 4.67522C29.4469 4.99866 30.0516 5.39241 30.6773 6.01819C31.3102 6.651 31.6969 7.24866 32.0203 8.08538C32.2664 8.71819 32.5617 9.67444 32.6391 11.4252C32.7234 13.3237 32.7445 13.8932 32.7445 18.6955C32.7445 23.5049 32.7234 24.0744 32.6391 25.9658C32.5617 27.7237 32.2664 28.6729 32.0203 29.3057C31.6969 30.1424 31.3031 30.7471 30.6773 31.3729C30.0445 32.0057 29.4469 32.3924 28.6102 32.7158C27.9773 32.9619 27.0211 33.2572 25.2703 33.3346C23.3719 33.419 22.8023 33.4401 18 33.4401C13.1906 33.4401 12.6211 33.419 10.7297 33.3346C8.97188 33.2572 8.02266 32.9619 7.38984 32.7158C6.55313 32.3924 5.94844 31.9987 5.32266 31.3729C4.68984 30.7401 4.30312 30.1424 3.97969 29.3057C3.73359 28.6729 3.43828 27.7166 3.36094 25.9658C3.27656 24.0674 3.25547 23.4979 3.25547 18.6955C3.25547 13.8862 3.27656 13.3166 3.36094 11.4252C3.43828 9.66741 3.73359 8.71819 3.97969 8.08538C4.30312 7.24866 4.69688 6.64397 5.32266 6.01819C5.95547 5.38538 6.55313 4.99866 7.38984 4.67522C8.02266 4.42913 8.97891 4.13381 10.7297 4.05647C12.6211 3.97209 13.1906 3.951 18 3.951ZM18 0.709595C13.1133 0.709595 12.5016 0.730688 10.582 0.815063C8.66953 0.899438 7.35469 1.20881 6.21563 1.65178C5.02734 2.11584 4.02188 2.72756 3.02344 3.73303C2.01797 4.73147 1.40625 5.73694 0.942188 6.91819C0.499219 8.06428 0.189844 9.37209 0.105469 11.2846C0.0210938 13.2112 0 13.8229 0 18.7096C0 23.5963 0.0210938 24.208 0.105469 26.1276C0.189844 28.0401 0.499219 29.3549 0.942188 30.494C1.40625 31.6822 2.01797 32.6877 3.02344 33.6862C4.02188 34.6846 5.02734 35.3033 6.20859 35.7604C7.35469 36.2033 8.6625 36.5127 10.575 36.5971C12.4945 36.6815 13.1062 36.7026 17.993 36.7026C22.8797 36.7026 23.4914 36.6815 25.4109 36.5971C27.3234 36.5127 28.6383 36.2033 29.7773 35.7604C30.9586 35.3033 31.9641 34.6846 32.9625 33.6862C33.9609 32.6877 34.5797 31.6823 35.0367 30.501C35.4797 29.3549 35.7891 28.0471 35.8734 26.1346C35.9578 24.2151 35.9789 23.6033 35.9789 18.7166C35.9789 13.8299 35.9578 13.2182 35.8734 11.2987C35.7891 9.38616 35.4797 8.07131 35.0367 6.93225C34.5938 5.73694 33.982 4.73147 32.9766 3.73303C31.9781 2.73459 30.9727 2.11584 29.7914 1.65881C28.6453 1.21584 27.3375 0.90647 25.425 0.822095C23.4984 0.730688 22.8867 0.709595 18 0.709595Z" fill="black"/>
<path d="M18 9.4635C12.8953 9.4635 8.75391 13.6049 8.75391 18.7096C8.75391 23.8143 12.8953 27.9557 18 27.9557C23.1047 27.9557 27.2461 23.8143 27.2461 18.7096C27.2461 13.6049 23.1047 9.4635 18 9.4635ZM18 24.7073C14.6883 24.7073 12.0023 22.0213 12.0023 18.7096C12.0023 15.3979 14.6883 12.7119 18 12.7119C21.3117 12.7119 23.9977 15.3979 23.9977 18.7096C23.9977 22.0213 21.3117 24.7073 18 24.7073Z" fill="black"/>
<path d="M29.7703 9.09781C29.7703 10.2931 28.8 11.2564 27.6117 11.2564C26.4164 11.2564 25.4531 10.2861 25.4531 9.09781C25.4531 7.90249 26.4234 6.93921 27.6117 6.93921C28.8 6.93921 29.7703 7.90952 29.7703 9.09781Z" fill="black"/>
</g>
<defs>
<clipPath id="clip0_501_84">
<rect width="36" height="36" fill="white" transform="translate(0 0.709595)"/>
</clipPath>
</defs>
</svg>
