<svg width="36" height="37" viewBox="0 0 36 37" fill="none" xmlns="http://www.w3.org/2000/svg">
<g clip-path="url(#clip0_501_88)">
<path d="M33.3352 0.709595H2.65781C1.18828 0.709595 0 1.86975 0 3.30413V34.108C0 35.5424 1.18828 36.7096 2.65781 36.7096H33.3352C34.8047 36.7096 36 35.5424 36 34.1151V3.30413C36 1.86975 34.8047 0.709595 33.3352 0.709595ZM10.6805 31.3869H5.33672V14.2026H10.6805V31.3869ZM8.00859 11.8612C6.29297 11.8612 4.90781 10.476 4.90781 8.76741C4.90781 7.05881 6.29297 5.67366 8.00859 5.67366C9.71719 5.67366 11.1023 7.05881 11.1023 8.76741C11.1023 10.469 9.71719 11.8612 8.00859 11.8612ZM30.6773 31.3869H25.3406V23.0338C25.3406 21.044 25.3055 18.4776 22.5633 18.4776C19.7859 18.4776 19.3641 20.6502 19.3641 22.8932V31.3869H14.0344V14.2026H19.1531V16.551H19.2234C19.9336 15.201 21.6773 13.7737 24.2719 13.7737C29.6789 13.7737 30.6773 17.3315 30.6773 21.958V31.3869Z" fill="black"/>
</g>
<defs>
<clipPath id="clip0_501_88">
<rect width="36" height="36" fill="white" transform="translate(0 0.709595)"/>
</clipPath>
</defs>
</svg>
