<svg width="36" height="37" viewBox="0 0 36 37" fill="none" xmlns="http://www.w3.org/2000/svg">
<path d="M35.6414 11.5097C35.6414 11.5097 35.2898 9.02764 34.207 7.93779C32.8359 6.50342 31.3031 6.49639 30.6 6.41201C25.5656 6.04639 18.007 6.04639 18.007 6.04639H17.993C17.993 6.04639 10.4344 6.04639 5.4 6.41201C4.69688 6.49639 3.16406 6.50342 1.79297 7.93779C0.710156 9.02764 0.365625 11.5097 0.365625 11.5097C0.365625 11.5097 0 14.4276 0 17.3386V20.0667C0 22.9776 0.358594 25.8956 0.358594 25.8956C0.358594 25.8956 0.710156 28.3776 1.78594 29.4675C3.15703 30.9019 4.95703 30.8526 5.75859 31.0073C8.64141 31.2815 18 31.3659 18 31.3659C18 31.3659 25.5656 31.3519 30.6 30.9933C31.3031 30.9089 32.8359 30.9019 34.207 29.4675C35.2898 28.3776 35.6414 25.8956 35.6414 25.8956C35.6414 25.8956 36 22.9847 36 20.0667V17.3386C36 14.4276 35.6414 11.5097 35.6414 11.5097ZM14.2805 23.3784V13.2604L24.0047 18.337L14.2805 23.3784Z" fill="black"/>
</svg>
